<svg width="19" height="24" viewBox="0 0 19 24" fill="none" xmlns="http://www.w3.org/2000/svg">
<path d="M17.6039 10.5578L16.2171 10.179C16.0473 10.1301 15.9058 9.95898 15.8586 9.73899C15.7077 9.04236 15.5001 8.37017 15.2266 7.74686C15.1417 7.55131 15.1417 7.30688 15.2454 7.11134L16.019 5.57141C16.1416 5.32697 16.1133 5.00921 15.953 4.80144L15.0379 3.61594C14.8775 3.40817 14.6322 3.38373 14.4436 3.53039L13.2549 4.54479C13.104 4.667 12.9153 4.67923 12.7644 4.56923C12.2832 4.2148 11.7644 3.93371 11.2267 3.75038C11.0569 3.68927 10.9248 3.50595 10.887 3.28596L10.604 1.48937C10.5569 1.20828 10.3588 1.00051 10.1418 1.00051H8.83993C8.62296 1.00051 8.42485 1.20828 8.37768 1.48937L8.08523 3.28596C8.0475 3.50595 7.92486 3.68927 7.75505 3.75038C7.21733 3.93371 6.69848 4.2148 6.21736 4.56923C6.06642 4.67923 5.86831 4.67923 5.7268 4.54479L4.53815 3.54261C4.34948 3.38373 4.1042 3.4204 3.94383 3.62816L3.02876 4.81366C2.86839 5.02143 2.84008 5.3392 2.96272 5.58363L3.73629 7.12356C3.83063 7.3191 3.84006 7.56354 3.75516 7.75908C3.48158 8.38239 3.2646 9.05458 3.1231 9.75121C3.07593 9.9712 2.93442 10.1301 2.76461 10.179L1.37786 10.5578C1.16088 10.6189 1.00051 10.8634 1.00051 11.1567V12.8433C1.00051 13.1366 1.16088 13.381 1.37786 13.4422L2.76461 13.821C2.93442 13.8699 3.07593 14.041 3.1231 14.261C3.27404 14.9576 3.48158 15.6298 3.75516 16.2531C3.84006 16.4487 3.84006 16.6931 3.73629 16.8887L2.96272 18.4286C2.84008 18.673 2.86839 18.9908 3.02876 19.1985L3.94383 20.384C4.1042 20.5918 4.34948 20.6163 4.53815 20.4696L5.7268 19.4674C5.87774 19.3452 6.06642 19.333 6.21736 19.443C6.69848 19.7974 7.21733 20.0785 7.75505 20.2618C7.92486 20.3229 8.05693 20.5063 8.09467 20.7263L8.38711 22.5228C8.42485 22.7917 8.62296 22.9995 8.83993 22.9995H10.1418C10.3682 22.9995 10.5569 22.7917 10.604 22.5106L10.8965 20.714C10.9342 20.494 11.0663 20.3107 11.2361 20.2496C11.7738 20.0541 12.2927 19.7852 12.7738 19.4308C12.9247 19.3208 13.1134 19.3208 13.2643 19.4552L14.453 20.4574C14.6417 20.6163 14.8869 20.5796 15.0473 20.3718L15.9624 19.1863C16.1228 18.9786 16.1416 18.6608 16.0284 18.4164L15.2549 16.8764C15.1605 16.6809 15.1511 16.4365 15.236 16.2409C15.5096 15.6176 15.7265 14.9454 15.8681 14.2488C15.9152 14.0288 16.0567 13.8577 16.2265 13.8088L17.6133 13.4299C17.8303 13.3688 17.9906 13.1244 17.9906 12.8311V11.1567C17.9812 10.8634 17.8208 10.6189 17.6039 10.5578ZM9.49086 15.6665C7.92486 15.6665 6.66074 14.0288 6.66074 12C6.66074 9.9712 7.92486 8.3335 9.49086 8.3335C11.0569 8.3335 12.321 9.9712 12.321 12C12.321 14.0288 11.0569 15.6665 9.49086 15.6665Z" stroke="#98A5F5" stroke-width="2"/>
</svg>
