<svg width="16" height="20" viewBox="0 0 16 20" fill="none" xmlns="http://www.w3.org/2000/svg">
<path d="M14.8469 13.2343H6.64528C6.57205 13.2343 6.49883 13.2343 6.49883 13.2343C5.54685 15.0263 4.59488 16.7129 3.64291 18.5049C3.56968 18.7157 3.34999 18.6103 3.34999 18.3995C3.42322 16.7129 3.42322 15.1317 3.49645 13.4452C3.49645 13.3398 3.42322 13.2343 3.34999 13.2343H1.15313C1.0799 13.2343 1.00667 13.1289 1.00667 13.0235V1.2175C1.00667 1.11209 1.0799 1.00667 1.15313 1.00667H14.8469C14.9201 1.00667 14.9934 1.11209 14.9934 1.2175V12.9181C14.9934 13.1289 14.9201 13.2343 14.8469 13.2343Z" stroke="#98A5F5" stroke-width="2" stroke-miterlimit="10" stroke-linecap="round" stroke-linejoin="round"/>
</svg>
