<svg width="18" height="24" viewBox="0 0 18 24" fill="none" xmlns="http://www.w3.org/2000/svg">
<path d="M15.9435 10.5578L14.6954 10.179C14.5426 10.1301 14.4153 9.95898 14.3728 9.73899C14.237 9.04236 14.0502 8.37017 13.804 7.74686C13.7275 7.55131 13.7275 7.30688 13.8209 7.11134L14.5171 5.57141C14.6275 5.32697 14.6021 5.00921 14.4577 4.80144L13.6341 3.61594C13.4898 3.40817 13.2691 3.38373 13.0993 3.53039L12.0295 4.54479C11.8936 4.667 11.7238 4.67923 11.588 4.56923C11.155 4.2148 10.688 3.93371 10.204 3.75038C10.0512 3.68927 9.93236 3.50595 9.8984 3.28596L9.64369 1.48937C9.60123 1.20828 9.42294 1.00051 9.22766 1.00051H8.05599C7.86071 1.00051 7.68241 1.20828 7.63996 1.48937L7.37676 3.28596C7.3428 3.50595 7.23243 3.68927 7.0796 3.75038C6.59565 3.93371 6.12868 4.2148 5.69567 4.56923C5.55983 4.67923 5.38153 4.67923 5.25417 4.54479L4.18439 3.54261C4.01458 3.38373 3.79383 3.4204 3.6495 3.62816L2.82593 4.81366C2.6816 5.02143 2.65613 5.3392 2.7665 5.58363L3.46271 7.12356C3.54761 7.3191 3.5561 7.56354 3.47969 7.75908C3.23347 8.38239 3.03819 9.05458 2.91084 9.75121C2.86839 9.9712 2.74103 10.1301 2.5882 10.179L1.34012 10.5578C1.14484 10.6189 1.00051 10.8634 1.00051 11.1567V12.8433C1.00051 13.1366 1.14484 13.381 1.34012 13.4422L2.5882 13.821C2.74103 13.8699 2.86839 14.041 2.91084 14.261C3.04668 14.9576 3.23347 15.6298 3.47969 16.2531C3.5561 16.4487 3.5561 16.6931 3.46271 16.8887L2.7665 18.4286C2.65613 18.673 2.6816 18.9908 2.82593 19.1985L3.6495 20.384C3.79383 20.5918 4.01458 20.6163 4.18439 20.4696L5.25417 19.4674C5.39002 19.3452 5.55983 19.333 5.69567 19.443C6.12868 19.7974 6.59565 20.0785 7.0796 20.2618C7.23243 20.3229 7.35129 20.5063 7.38525 20.7263L7.64845 22.5228C7.68241 22.7917 7.86071 22.9995 8.05599 22.9995H9.22766C9.43143 22.9995 9.60123 22.7917 9.64369 22.5106L9.90689 20.714C9.94085 20.494 10.0597 20.3107 10.2125 20.2496C10.6965 20.0541 11.1635 19.7852 11.5965 19.4308C11.7323 19.3208 11.9021 19.3208 12.038 19.4552L13.1077 20.4574C13.2776 20.6163 13.4983 20.5796 13.6426 20.3718L14.4662 19.1863C14.6105 18.9786 14.6275 18.6608 14.5256 18.4164L13.8294 16.8764C13.7445 16.6809 13.736 16.4365 13.8124 16.2409C14.0587 15.6176 14.2539 14.9454 14.3813 14.2488C14.4238 14.0288 14.5511 13.8577 14.7039 13.8088L15.952 13.4299C16.1473 13.3688 16.2916 13.1244 16.2916 12.8311V11.1567C16.2831 10.8634 16.1388 10.6189 15.9435 10.5578ZM8.64182 15.6665C7.23243 15.6665 6.09472 14.0288 6.09472 12C6.09472 9.9712 7.23243 8.3335 8.64182 8.3335C10.0512 8.3335 11.1889 9.9712 11.1889 12C11.1889 14.0288 10.0512 15.6665 8.64182 15.6665Z" stroke="#98A5F5" stroke-width="2"/>
</svg>
