<svg width="18" height="20" viewBox="0 0 18 20" fill="none" xmlns="http://www.w3.org/2000/svg">
<path d="M16.6966 13.4862H7.4102C7.32729 13.4862 7.24437 13.4862 7.24437 13.4862C6.16649 15.3123 5.08861 17.031 4.01073 18.8571C3.92782 19.0719 3.67908 18.9645 3.67908 18.7497C3.76199 17.031 3.76199 15.4197 3.84491 13.7011C3.84491 13.5937 3.76199 13.4862 3.67908 13.4862H1.19166C1.10875 13.4862 1.02583 13.3788 1.02583 13.2714V1.24067C1.02583 1.13325 1.10875 1.02583 1.19166 1.02583H16.6966C16.7795 1.02583 16.8624 1.13325 16.8624 1.24067V13.164C16.8624 13.3788 16.7795 13.4862 16.6966 13.4862Z" stroke="#98A5F5" stroke-width="2" stroke-miterlimit="10" stroke-linecap="round" stroke-linejoin="round"/>
</svg>
