<svg width="128" height="28" viewBox="0 0 128 28" fill="none" xmlns="http://www.w3.org/2000/svg">
<path d="M18.9827 21.8392L17.4347 18.8915C16.7199 17.531 16.3393 15.9727 16.3393 14.3903V11.8093C16.3393 8.55278 14.4318 5.79804 11.8264 4.91035V3.0626C11.8306 1.92404 11.0186 1.00257 10.0246 1.00257C9.03069 1.00257 8.21863 1.92404 8.21863 3.0626V4.91035C5.61326 5.79804 3.70999 8.55278 3.70999 11.8093V14.3903C3.70999 15.9775 3.33356 17.531 2.61877 18.8915L1.06655 21.8344C0.981959 21.9936 0.981959 22.1914 1.06232 22.3554C1.14268 22.5146 1.29071 22.6159 1.45566 22.6159H18.5978C18.7585 22.6159 18.9108 22.5146 18.9912 22.3554C19.0715 22.1962 19.0673 21.9936 18.9827 21.8392Z" stroke="#768492" stroke-width="2" stroke-miterlimit="10"/>
<path d="M126.997 22.8825C126.997 24.6946 125.528 26.1637 123.716 26.1637C121.904 26.1637 120.435 24.6946 120.435 22.8825" stroke="#768492" stroke-width="2"/>
</svg>
