<svg width="20" height="20" viewBox="0 0 20 20" fill="none" xmlns="http://www.w3.org/2000/svg">
<path d="M1.5 12C1.5 11.4696 1.71071 10.9609 2.08579 10.5858C2.46086 10.2107 2.96957 10 3.5 10H10C10.5304 10 11.0391 10.2107 11.4142 10.5858C11.7893 10.9609 12 11.4696 12 12C12 12 12 16 6.75 16C1.5 16 1.5 12 1.5 12Z" fill="url(#paint0_linear_3624_652)"/>
<path d="M1.5 12C1.5 11.4696 1.71071 10.9609 2.08579 10.5858C2.46086 10.2107 2.96957 10 3.5 10H10C10.5304 10 11.0391 10.2107 11.4142 10.5858C11.7893 10.9609 12 11.4696 12 12C12 12 12 16 6.75 16C1.5 16 1.5 12 1.5 12Z" fill="url(#paint1_linear_3624_652)"/>
<path d="M1.5 12C1.5 11.4696 1.71071 10.9609 2.08579 10.5858C2.46086 10.2107 2.96957 10 3.5 10H10C10.5304 10 11.0391 10.2107 11.4142 10.5858C11.7893 10.9609 12 11.4696 12 12C12 12 12 16 6.75 16C1.5 16 1.5 12 1.5 12Z" fill="url(#paint2_radial_3624_652)" fill-opacity="0.5"/>
<path d="M14.5 9C15.163 9 15.7989 8.73661 16.2678 8.26777C16.7366 7.79893 17 7.16304 17 6.5C17 5.83696 16.7366 5.20107 16.2678 4.73223C15.7989 4.26339 15.163 4 14.5 4C13.837 4 13.2011 4.26339 12.7322 4.73223C12.2634 5.20107 12 5.83696 12 6.5C12 7.16304 12.2634 7.79893 12.7322 8.26777C13.2011 8.73661 13.837 9 14.5 9Z" fill="url(#paint3_linear_3624_652)"/>
<path d="M6.75 9C7.61195 9 8.4386 8.65759 9.0481 8.0481C9.65759 7.4386 10 6.61195 10 5.75C10 4.88805 9.65759 4.0614 9.0481 3.4519C8.4386 2.84241 7.61195 2.5 6.75 2.5C5.88805 2.5 5.0614 2.84241 4.4519 3.4519C3.84241 4.0614 3.5 4.88805 3.5 5.75C3.5 6.61195 3.84241 7.4386 4.4519 8.0481C5.0614 8.65759 5.88805 9 6.75 9Z" fill="url(#paint4_linear_3624_652)"/>
<path d="M19 14.5C19.0001 15.2833 18.7959 16.053 18.4073 16.7331C18.0188 17.4132 17.4594 17.9801 16.7846 18.3778C16.1098 18.7754 15.3429 18.9901 14.5597 19.0004C13.7765 19.0108 13.0041 18.8166 12.319 18.437L10.529 18.981C10.4582 19.0021 10.383 19.0037 10.3113 18.9855C10.2397 18.9674 10.1743 18.9302 10.122 18.878C10.0698 18.8257 10.0326 18.7603 10.0145 18.6887C9.99633 18.617 9.9979 18.5418 10.019 18.471L10.563 16.682C10.2304 16.0812 10.0397 15.4122 10.0056 14.7264C9.97141 14.0405 10.0947 13.3559 10.3659 12.725C10.6372 12.0942 11.0492 11.5337 11.5705 11.0867C12.0918 10.6396 12.7084 10.3178 13.3733 10.1459C14.0381 9.97393 14.7335 9.95643 15.4061 10.0947C16.0788 10.233 16.7109 10.5234 17.254 10.9436C17.7971 11.3639 18.2368 11.9029 18.5394 12.5193C18.8421 13.1358 18.9996 13.8133 19 14.5Z" fill="url(#paint5_linear_3624_652)"/>
<path d="M12.5 13C12.3674 13 12.2402 13.0527 12.1464 13.1464C12.0527 13.2402 12 13.3674 12 13.5C12 13.6326 12.0527 13.7598 12.1464 13.8536C12.2402 13.9473 12.3674 14 12.5 14H16.5C16.6326 14 16.7598 13.9473 16.8536 13.8536C16.9473 13.7598 17 13.6326 17 13.5C17 13.3674 16.9473 13.2402 16.8536 13.1464C16.7598 13.0527 16.6326 13 16.5 13H12.5ZM12 15.5C12 15.6326 12.0527 15.7598 12.1464 15.8536C12.2402 15.9473 12.3674 16 12.5 16H14.5C14.6326 16 14.7598 15.9473 14.8536 15.8536C14.9473 15.7598 15 15.6326 15 15.5C15 15.3674 14.9473 15.2402 14.8536 15.1464C14.7598 15.0527 14.6326 15 14.5 15H12.5C12.3674 15 12.2402 15.0527 12.1464 15.1464C12.0527 15.2402 12 15.3674 12 15.5Z" fill="url(#paint6_linear_3624_652)"/>
<defs>
<linearGradient id="paint0_linear_3624_652" x1="3.997" y1="10.798" x2="6.153" y2="16.823" gradientUnits="userSpaceOnUse">
<stop offset="0.125" stop-color="#BD96FF"/>
<stop offset="1" stop-color="#9C6CFE"/>
</linearGradient>
<linearGradient id="paint1_linear_3624_652" x1="6.75" y1="9.286" x2="9.79" y2="19.225" gradientUnits="userSpaceOnUse">
<stop stop-color="#885EDB" stop-opacity="0"/>
<stop offset="1" stop-color="#E362F8"/>
</linearGradient>
<radialGradient id="paint2_radial_3624_652" cx="0" cy="0" r="1" gradientUnits="userSpaceOnUse" gradientTransform="translate(12.5 14.5) rotate(66.0375) scale(4.92443)">
<stop stop-color="#30116E"/>
<stop offset="0.331" stop-color="#30116E" stop-opacity="0.812"/>
<stop offset="1" stop-color="#30116E" stop-opacity="0"/>
</radialGradient>
<linearGradient id="paint3_linear_3624_652" x1="13.189" y1="4.665" x2="15.737" y2="8.734" gradientUnits="userSpaceOnUse">
<stop offset="0.125" stop-color="#9C6CFE"/>
<stop offset="1" stop-color="#7A41DC"/>
</linearGradient>
<linearGradient id="paint4_linear_3624_652" x1="5.046" y1="3.364" x2="8.358" y2="8.654" gradientUnits="userSpaceOnUse">
<stop offset="0.125" stop-color="#BD96FF"/>
<stop offset="1" stop-color="#9C6CFE"/>
</linearGradient>
<linearGradient id="paint5_linear_3624_652" x1="10.321" y1="11.688" x2="18.178" y2="25.083" gradientUnits="userSpaceOnUse">
<stop stop-color="#670FFF"/>
<stop offset="1" stop-color="#CC23D1"/>
</linearGradient>
<linearGradient id="paint6_linear_3624_652" x1="12.437" y1="13.053" x2="12.741" y2="16.317" gradientUnits="userSpaceOnUse">
<stop stop-color="#FDFDFD"/>
<stop offset="1" stop-color="#CCEAFF"/>
</linearGradient>
</defs>
</svg>
