<svg width="16" height="18" viewBox="0 0 16 18" fill="none" xmlns="http://www.w3.org/2000/svg">
<path d="M3 1H3.74219C4.26287 1.00012 4.75164 1.20148 5.10645 1.55371L5.25 1.71387C5.38275 1.88026 5.51573 2.04748 5.64941 2.21582C5.7829 2.38391 5.91733 2.55318 6.05176 2.72168C6.80253 3.66272 7.93942 4.18848 9.12402 4.18848H12.376C13.4804 4.18848 14.3762 5.08352 14.377 6.18848C14.3786 8.99718 14.3849 12.1495 14.4062 14.9648C14.4148 16.0868 13.509 17 12.3945 17H3C1.89543 17 1 16.1046 1 15V3C1 1.89555 1.89543 1.00009 3 1Z" stroke="#98A5F5" stroke-width="2" stroke-miterlimit="10"/>
</svg>
