<svg width="59" height="65" viewBox="0 0 59 65" fill="none" xmlns="http://www.w3.org/2000/svg">
<path d="M11.0226 11.8737C10.5648 4.24671 17.7148 -1.58761 25.0955 0.387968L50.3777 7.16437C57.7559 9.14135 61.0333 17.7676 56.8209 24.1453L45.8736 40.7257C45.5699 41.1861 45.3599 41.7017 45.2556 42.2432C45.1513 42.7847 45.1547 43.3415 45.2656 43.8817L48.2074 58.2793C48.3989 59.2142 48.3483 60.1825 48.0602 61.0923C47.7722 62.002 47.2564 62.823 46.5617 63.4773C45.867 64.1316 45.0166 64.5974 44.0912 64.8305C43.1659 65.0636 42.1963 65.0562 41.2746 64.809L4.14658 54.8606C3.22533 54.6134 2.38254 54.1349 1.6982 53.4705C1.01385 52.806 0.510664 51.9777 0.23639 51.0642C-0.0378833 50.1506 -0.0741419 49.1821 0.131055 48.2506C0.336252 47.3191 0.776096 46.4555 1.40884 45.7418L11.1615 34.7435C11.8998 33.9107 12.2771 32.8188 12.2106 31.7078L11.0226 11.8737Z" fill="#D9D9D9"/>
</svg>
