<svg width="25" height="25" viewBox="0 0 25 25" fill="none" xmlns="http://www.w3.org/2000/svg">
<path fill-rule="evenodd" clip-rule="evenodd" d="M10.7884 18.4638C10.2212 17.4114 9.75054 16.3097 9.38219 15.1723C9.20615 14.6108 9.06033 14.0379 8.9145 13.465C8.76867 12.8921 8.57076 12.0182 8.45618 11.2787C8.64437 11.1919 8.82492 11.0912 8.99783 10.9766C10.0325 10.3936 10.8032 9.43487 11.1503 8.29911C11.4974 7.16335 11.3943 5.93758 10.8623 4.87577C8.77805 0.51239 1.85434 0.00199147 0.927291 5.93719C0.736008 6.95908 0.876431 8.01535 1.32805 8.95177C1.77968 9.88818 2.51885 10.6557 3.43762 11.1422C3.17721 12.1838 2.90639 13.2255 2.68764 14.3192C2.54181 15.0681 2.41682 15.8181 2.22933 16.5462C2.03898 17.3032 1.7738 18.0395 1.43769 18.744C1.39586 18.7418 1.35401 18.7481 1.31465 18.7624C1.27528 18.7767 1.23919 18.7988 1.20853 18.8273C0.796171 19.1475 0.470591 19.5659 0.261525 20.0442C0.0524585 20.5226 -0.0334313 21.0457 0.0116996 21.5658C0.105798 22.101 0.337834 22.6024 0.684903 23.0205C1.03197 23.4386 1.48208 23.759 1.99079 23.9501C3.26691 24.5024 4.63985 24.7962 6.03023 24.8146C7.46615 24.8175 8.86736 24.3733 10.0395 23.5438C10.9354 22.9441 11.5972 22.0538 11.9133 21.0231C11.9561 20.5997 11.8993 20.1721 11.7473 19.7746C11.5954 19.3771 11.3526 19.0206 11.0384 18.7336C10.9655 18.6711 11.0071 18.7451 10.7884 18.4638ZM1.84497 6.06219C2.44807 0.710299 8.3416 1.52277 9.97696 5.20805C10.3809 6.06402 10.4361 7.04352 10.1309 7.93946C9.82572 8.83539 9.18406 9.57752 8.3416 10.0089C7.79819 10.3495 7.18655 10.5664 6.55 10.6443C6.24862 10.6797 5.9469 10.6797 5.64483 10.6443C5.33307 10.6058 5.02599 10.536 4.72819 10.436C3.79376 10.1894 2.98309 9.60681 2.45132 8.79983C1.91955 7.99286 1.70299 7.01813 1.84497 6.06219ZM3.50115 16.0066C3.69143 15.3441 3.82337 14.6706 3.89697 13.9859C4.00114 13.1317 4.02197 12.2672 4.07405 11.3932L4.38654 11.5287C4.7518 11.6571 5.12679 11.7439 5.5115 11.7891C5.90662 11.8356 6.30209 11.8356 6.69791 11.7891C7.05276 11.7474 7.39997 11.671 7.73954 11.5599C7.70552 12.2557 7.72635 12.9501 7.80204 13.6432C7.85898 14.0397 7.94231 14.4317 8.05203 14.8192C8.16522 15.2066 8.3041 15.5851 8.46868 15.9545C8.95895 16.978 9.5482 17.951 10.228 18.8596C10.1799 18.8689 10.1344 18.8886 10.0948 18.9174C10.0552 18.9462 10.0224 18.9834 9.99883 19.0263C9.83504 19.27 9.61771 19.4731 9.36344 19.62C8.93612 19.8494 8.4758 20.011 7.99891 20.0992C7.38122 20.245 6.74895 20.3252 6.1146 20.3377C5.46442 20.3609 4.81383 20.305 4.17717 20.171C3.3542 20.0133 2.57393 19.6832 1.88767 19.2023C1.88767 19.2023 1.95017 19.2023 1.971 19.1294C2.65075 18.1806 3.16787 17.1252 3.50115 16.0066ZM11.1332 20.8273C10.8136 21.6303 10.2243 22.2969 9.46656 22.7126C8.43237 23.3496 7.235 23.6713 6.02085 23.6386C4.77833 23.636 3.54672 23.4066 2.38661 22.9616C2.01806 22.8637 1.68167 22.6708 1.41112 22.402C1.14057 22.1333 0.945353 21.7983 0.845002 21.4304C0.793845 21.0862 0.819625 20.7349 0.920488 20.4019C1.02135 20.0689 1.19479 19.7624 1.42831 19.5044C1.44278 19.5573 1.46756 19.6069 1.50123 19.6502C2.35514 20.5107 3.44086 21.1042 4.62611 21.3585C5.22547 21.4799 5.83999 21.508 6.44792 21.4418C7.05202 21.382 7.64663 21.2491 8.21869 21.046C8.76703 20.8638 9.28336 20.5967 9.74884 20.2544C10.0871 20.016 10.3566 19.6926 10.5301 19.3169C10.7269 19.5153 10.8819 19.7512 10.9856 20.0107C11.0894 20.2702 11.14 20.5479 11.1342 20.8273M24.7629 5.20805C24.7192 5.15474 24.6704 5.10589 24.617 5.06222C24.44 4.93723 23.9608 4.6664 23.9192 4.63515L21.3672 2.99042C20.6068 2.48003 19.8891 1.9488 19.1183 1.41756C18.5833 1.06751 18.0149 0.771284 17.4215 0.533222C17.0828 0.399737 16.7346 0.2918 16.3798 0.210317C16.1871 0.1737 15.9893 0.1737 15.7965 0.210317C15.5563 0.264482 15.3271 0.351284 15.1091 0.470724C14.683 0.710299 14.2456 1.05404 13.9226 1.23111L11.6113 2.64773C11.5761 2.66722 11.5451 2.69356 11.5202 2.72519C11.4953 2.75682 11.4769 2.79312 11.4663 2.83193C11.4556 2.87075 11.4528 2.91131 11.458 2.95123C11.4632 2.99115 11.4764 3.02962 11.4967 3.06438C11.5152 3.09925 11.5405 3.13002 11.5712 3.15481C11.6019 3.17961 11.6373 3.19791 11.6753 3.20863C11.7133 3.21934 11.753 3.22223 11.7921 3.21713C11.8313 3.21203 11.869 3.19905 11.9029 3.17896L14.2883 1.87692C14.6216 1.71026 15.0789 1.38736 15.5059 1.17903C15.6448 1.11398 15.792 1.06841 15.9434 1.04362C16.0747 1.03997 16.2054 1.06118 16.3288 1.10612C16.5795 1.19292 16.826 1.29361 17.0684 1.40819C17.5892 1.65124 18.0819 1.94289 18.5464 2.28316C19.286 2.80397 19.9735 3.39666 20.712 3.92789L23.2733 5.62574L23.4192 5.75074C23.3463 5.78546 23.2768 5.82713 23.2109 5.87573C22.9192 6.091 22.6171 6.29204 22.3046 6.47884C21.8151 6.77049 21.3151 7.0309 20.8151 7.28089L17.2132 8.99854C16.9215 9.13395 16.5986 9.34227 16.2757 9.47769C16.1225 9.5481 15.9545 9.58027 15.7861 9.57143C15.4935 9.54593 15.206 9.4793 14.932 9.37352C14.2456 9.1027 13.9747 8.66522 12.9446 8.2694C12.8588 8.23835 12.7643 8.2416 12.6809 8.27847C12.5975 8.31534 12.5315 8.38298 12.4967 8.46731C12.4799 8.50968 12.4717 8.55496 12.4726 8.60051C12.4735 8.64607 12.4835 8.69099 12.5019 8.73267C12.5203 8.77435 12.5468 8.81195 12.5799 8.84329C12.613 8.87462 12.652 8.89907 12.6946 8.91521C13.7362 9.35269 13.9549 9.79017 14.632 10.0922C14.9497 10.2381 15.2861 10.3474 15.6309 10.4152C15.5684 11.2693 15.4955 12.1224 15.4851 12.9869V14.1536C15.4851 14.5494 15.5372 14.9233 15.5684 15.3191C15.6518 16.2254 15.7663 16.6524 15.8497 17.5472C15.8497 17.6383 15.8859 17.7258 15.9503 17.7902C16.0148 17.8547 16.1022 17.8909 16.1934 17.8909C16.2846 17.8909 16.372 17.8547 16.4365 17.7902C16.5009 17.7258 16.5371 17.6383 16.5371 17.5472C16.5892 16.641 16.6517 16.2035 16.6621 15.2868V14.1108C16.6621 13.715 16.6621 13.3296 16.5892 12.9442C16.5059 12.0807 16.3601 11.237 16.2559 10.3839H16.3184C16.7267 10.236 17.1257 10.0659 17.5152 9.8735L21.2224 8.29023C21.7536 8.04024 22.264 7.79025 22.8265 7.49859C23.1876 7.30068 23.5344 7.07847 23.8671 6.83195L24.0962 6.66529C23.9296 7.36318 23.7629 8.07149 23.6171 8.74855C23.4088 9.85267 23.2213 10.9568 23.0754 12.0807L22.9192 13.7369C22.8909 13.8359 22.87 13.9369 22.8567 14.039C22.4505 14.3723 22.013 14.6837 21.5755 14.9754C20.3266 15.8295 18.9933 16.5795 17.7444 17.4024C17.3902 17.6409 16.9527 18.0576 16.4736 18.3388C16.2708 18.4924 16.0189 18.5665 15.7653 18.5471C15.3602 18.489 14.9646 18.3769 14.5893 18.2138C13.985 17.8474 13.3466 17.5404 12.6831 17.2972C12.6407 17.2804 12.5955 17.2723 12.5499 17.2732C12.5043 17.2741 12.4594 17.284 12.4177 17.3024C12.3761 17.3208 12.3385 17.3474 12.3071 17.3804C12.2758 17.4135 12.2513 17.4525 12.2352 17.4951C12.2048 17.5822 12.2095 17.6777 12.2484 17.7614C12.2873 17.845 12.3573 17.9102 12.4435 17.943C13.756 18.4742 13.8185 18.7867 14.5893 19.0992C14.9296 19.2228 15.2768 19.327 15.6309 19.4117C15.9819 19.4752 16.3455 19.4325 16.6725 19.2867C17.2521 18.9916 17.8028 18.6429 18.3173 18.2451C19.4318 17.5784 20.5974 16.9743 21.7015 16.2868C22.4643 15.8218 23.1885 15.2961 23.8671 14.715C23.969 14.6194 24.0413 14.4964 24.0754 14.3608C24.09 14.1733 24.09 13.9859 24.0754 13.7984L24.1691 12.1422C24.2421 11.0391 24.3462 9.94642 24.4816 8.84229C24.617 7.73817 24.7941 6.64446 24.992 5.5622C25.0012 5.52385 25.0025 5.48404 24.9958 5.44518C24.9891 5.40632 24.9746 5.36922 24.9532 5.33612C24.9318 5.30302 24.9039 5.2746 24.8712 5.25259C24.8384 5.23058 24.8016 5.21542 24.7629 5.20805Z" fill="#98A5F5"/>
<path fill-rule="evenodd" clip-rule="evenodd" d="M15.1101 6.49976C15.2559 6.54837 15.4052 6.5831 15.558 6.60393C16.426 6.65061 17.279 6.36367 17.9423 5.80187C19.1922 4.42692 16.0257 2.75094 14.183 3.92694C13.9847 4.0388 13.8207 4.2027 13.7087 4.40096C13.5967 4.59922 13.541 4.8243 13.5476 5.0519C13.5476 5.45814 13.8601 5.95812 14.6726 6.34352C14.815 6.40602 14.9608 6.4581 15.1101 6.49976ZM15.4851 4.41651C17.0058 3.98944 17.1725 4.88524 17.4329 4.97899C17.4345 5.01417 17.4266 5.04914 17.4101 5.08027C17.3936 5.11139 17.3691 5.13756 17.3392 5.15606C17.2213 5.24713 17.0869 5.31435 16.9433 5.35397C16.5614 5.49819 16.1478 5.53775 15.7455 5.46855L15.1517 5.27064C15.0218 5.20851 14.8995 5.13162 14.7872 5.04148C14.7872 5.04148 14.6622 4.9894 14.683 4.94774C14.7743 4.812 14.8927 4.6966 15.0307 4.60877C15.1688 4.52094 15.3234 4.46258 15.4851 4.43734V4.41651ZM20.0037 13.861C20.0943 13.8669 20.1838 13.8378 20.2536 13.7796C20.3234 13.7215 20.3681 13.6387 20.3786 13.5485C20.4828 13.1943 20.587 12.861 20.6599 12.5068C20.6599 12.3506 20.6599 12.1943 20.712 12.0496C20.7224 11.8933 20.7224 11.7371 20.712 11.5808C20.6476 11.2284 20.5607 10.8805 20.4516 10.5392C20.4516 10.4986 20.4434 10.4585 20.4276 10.4211C20.4118 10.3838 20.3886 10.35 20.3594 10.3218C20.3303 10.2936 20.2957 10.2716 20.2579 10.2571C20.22 10.2425 20.1796 10.2357 20.1391 10.2371C20.0589 10.2423 19.9834 10.2772 19.9276 10.3349C19.8717 10.3927 19.8394 10.4693 19.837 10.5496C19.7641 10.9038 19.6495 11.2267 19.5974 11.5912C19.5828 11.7371 19.5828 11.8829 19.5974 12.0287V12.4662C19.5974 12.8308 19.6912 13.1641 19.7224 13.5078C19.7185 13.5909 19.7449 13.6726 19.7966 13.7377C19.8483 13.8028 19.9219 13.8459 20.0037 13.861Z" fill="#98A5F5"/>
</svg>
