<svg width="20" height="28" viewBox="0 0 20 28" fill="none" xmlns="http://www.w3.org/2000/svg">
<path d="M18.5528 21.7832L17.0416 18.843C16.3438 17.486 15.9722 15.9317 15.9722 14.3534V11.7789C15.9722 8.53083 14.11 5.78316 11.5666 4.89775V3.05474C11.5707 1.9191 10.7779 1 9.80762 1C8.83731 1 8.04455 1.9191 8.04455 3.05474V4.89775C5.5011 5.78316 3.64307 8.53083 3.64307 11.7789V14.3534C3.64307 15.9365 3.27559 17.486 2.57779 18.843L1.06246 21.7784C0.979881 21.9371 0.979881 22.1344 1.05833 22.2981C1.13678 22.4568 1.2813 22.5579 1.44233 22.5579H18.177C18.3339 22.5579 18.4826 22.4568 18.561 22.2981C18.6395 22.1393 18.6354 21.9371 18.5528 21.7832Z" stroke="#768492" stroke-width="2" stroke-miterlimit="10"/>
<path d="M13.4063 23C13.4063 24.8075 11.9722 26.2727 10.2032 26.2727C8.4341 26.2727 7 24.8075 7 23" stroke="#768492" stroke-width="2"/>
</svg>
