<svg width="74" height="99" viewBox="0 0 74 99" fill="none" xmlns="http://www.w3.org/2000/svg">
<g clip-path="url(#clip0_3616_1242)">
<path d="M0.903931 95.8889V45.1568C0.903931 43.0314 2.39877 41.3065 4.24064 41.3065H55.1721V76.9452L0.903931 95.8889Z" fill="#7448C8"/>
<path d="M4.85461 18.2044V79.7175H58.7758V27.7533H50.8211C48.8191 27.7533 47.2174 25.8743 47.2174 23.5949V15.2166H7.4439C6.00244 15.2166 4.85461 16.5719 4.85461 18.2044Z" fill="#E8EDFF"/>
<path d="M4.1872 99H60.0303C61.4718 99 62.7531 97.8911 63.1802 96.3202L73.6441 56.2458C74.2847 53.8124 72.7098 51.379 70.4942 51.379H42.7328C41.4248 51.379 40.2503 52.2722 39.7164 53.6584L38.2216 57.6011C37.6877 58.9872 36.4865 59.9113 35.1785 59.8805C27.4908 59.7881 19.803 59.6957 12.0885 59.6033C10.6204 59.5725 9.31238 60.7122 8.91198 62.3447C6.26931 72.9409 3.65333 83.5678 1.01066 94.164C0.423399 96.5974 1.99832 99 4.1872 99Z" fill="#935EF4"/>
<path d="M47.2174 15.2166V24.7038C47.2174 26.3671 48.3919 27.7225 49.8334 27.7225H58.7758L47.2174 15.2166Z" fill="#BFC9ED"/>
<path d="M51.435 34.0678H12.3288C11.9818 34.0678 11.7148 33.7598 11.7148 33.3594C11.7148 32.9589 11.9818 32.6509 12.3288 32.6509H51.435C51.782 32.6509 52.0489 32.9589 52.0489 33.3594C52.0756 33.7598 51.782 34.0678 51.435 34.0678Z" fill="#BFC9ED"/>
<path d="M51.435 41.3065H12.3288C11.9818 41.3065 11.7148 40.9985 11.7148 40.598C11.7148 40.1976 11.9818 39.8896 12.3288 39.8896H51.435C51.782 39.8896 52.0489 40.1976 52.0489 40.598C52.0756 40.9985 51.782 41.3065 51.435 41.3065Z" fill="#BFC9ED"/>
<path d="M37.4208 48.1755H12.222C11.9551 48.1755 11.7148 47.9291 11.7148 47.5902V47.313C11.7148 47.005 11.9284 46.7278 12.222 46.7278H37.4208C37.6878 46.7278 37.928 46.9742 37.928 47.313V47.5902C37.928 47.9291 37.6878 48.1755 37.4208 48.1755Z" fill="#BFC9ED"/>
<rect x="54.9359" y="1" width="1.7153" height="14" rx="0.857651" fill="#BFC9ED"/>
<rect width="1.85666" height="13.0866" rx="0.928331" transform="matrix(0.66789 0.74426 -0.633929 0.773391 68.3778 4)" fill="#BFC9ED"/>
<rect x="72.089" y="20" width="2" height="12.0071" rx="1" transform="rotate(90 72.089 20)" fill="#BFC9ED"/>
</g>
<defs>
<clipPath id="clip0_3616_1242">
<rect width="72.9004" height="99" fill="white" transform="translate(0.903931)"/>
</clipPath>
</defs>
</svg>
